<?xml version="1.0" encoding="UTF-8" standalone="no"?>
<!-- Created with Inkscape (http://www.inkscape.org/) -->

<svg
   width="172.57407mm"
   height="55.185368mm"
   viewBox="0 0 172.57407 55.185368"
   version="1.1"
   id="svg5"
   xml:space="preserve"
   inkscape:version="1.2.1 (9c6d41e, 2022-07-14)"
   sodipodi:docname="perun.svg"
   xmlns:inkscape="http://www.inkscape.org/namespaces/inkscape"
   xmlns:sodipodi="http://sodipodi.sourceforge.net/DTD/sodipodi-0.dtd"
   xmlns="http://www.w3.org/2000/svg"
   xmlns:svg="http://www.w3.org/2000/svg"><sodipodi:namedview
     id="namedview7"
     pagecolor="#505050"
     bordercolor="#eeeeee"
     borderopacity="1"
     inkscape:showpageshadow="0"
     inkscape:pageopacity="0"
     inkscape:pagecheckerboard="0"
     inkscape:deskcolor="#505050"
     inkscape:document-units="mm"
     showgrid="false"
     inkscape:zoom="1.2368489"
     inkscape:cx="138.65881"
     inkscape:cy="196.87125"
     inkscape:window-width="1920"
     inkscape:window-height="1147"
     inkscape:window-x="0"
     inkscape:window-y="25"
     inkscape:window-maximized="1"
     inkscape:current-layer="layer1" /><defs
     id="defs2" /><g
     inkscape:label="Layer 1"
     inkscape:groupmode="layer"
     id="layer1"
     transform="translate(-21.508291,-109.02316)"><g
       id="g1801"><circle
         style="fill:#8cb423;fill-opacity:1;stroke-width:0.264583"
         id="path231"
         cx="50.063343"
         cy="136.61584"
         r="2.5926795" /><path
         id="path447"
         style="fill:#005aa0;fill-opacity:1;stroke-width:0.296897"
         inkscape:transform-center-y="0.017822118"
         d="M 62.557928,162.37462 56.310765,151.6161 50.0636,140.85706 43.81592,151.6161 37.568757,162.37462 h 5.139738 a 7.3572302,7.3572302 0 0 1 -0.0021,-0.1323 7.3572302,7.3572302 0 0 1 7.357172,-7.35717 7.3572302,7.3572302 0 0 1 7.357174,7.35717 7.3572302,7.3572302 0 0 1 -0.0057,0.1323 z"
         inkscape:transform-center-x="-3.5862785" /><path
         id="path447-9"
         style="fill:#005aa0;fill-opacity:1;stroke-width:0.296897"
         d="m 78.618394,138.6746 -12.440734,0.0309 -12.441184,0.0307 6.193762,10.79017 6.193569,10.78946 2.56987,-4.45114 a 7.3572302,7.3572302 0 0 1 -0.115567,-0.0644 7.3572302,7.3572302 0 0 1 -2.692918,-10.05009 7.3572302,7.3572302 0 0 1 10.050092,-2.6929 7.3572302,7.3572302 0 0 1 0.111716,0.0711 z"
         inkscape:transform-center-x="3.586223" /><path
         id="path447-1"
         style="fill:#005aa0;fill-opacity:1;stroke-width:0.296897"
         inkscape:transform-center-y="0.017951275"
         d="m 34.002876,160.31586 6.19357,-10.78946 6.194021,-10.78972 -12.441442,-0.0311 -12.440734,-0.0309 2.569869,4.45115 a 7.3572302,7.3572302 0 0 1 0.113577,-0.0679 7.3572302,7.3572302 0 0 1 10.050083,2.69291 7.3572302,7.3572302 0 0 1 -2.69291,10.05008 7.3572302,7.3572302 0 0 1 -0.117425,0.0612 z"
         inkscape:transform-center-x="3.5862786" /><path
         id="path447-7"
         style="fill:#005aa0;fill-opacity:1;stroke-width:0.296897"
         d="m 21.508292,134.55708 12.440734,-0.0309 12.441184,-0.0307 -6.193762,-10.79017 -6.193569,-10.78946 -2.56987,4.45115 a 7.3572302,7.3572302 0 0 1 0.115575,0.0644 7.3572302,7.3572302 0 0 1 2.69291,10.05009 7.3572302,7.3572302 0 0 1 -10.050083,2.69291 7.3572302,7.3572302 0 0 1 -0.111725,-0.0711 z"
         inkscape:transform-center-x="-3.5862228" /><path
         id="path447-2"
         style="fill:#005aa0;fill-opacity:1;stroke-width:0.296897"
         inkscape:transform-center-y="-0.017820934"
         d="m 37.568759,110.85707 6.247162,10.75851 6.247163,10.75904 6.247683,-10.75904 6.247165,-10.75851 h -5.139739 a 7.3572302,7.3572302 0 0 1 0.002,0.13229 7.3572302,7.3572302 0 0 1 -7.357174,7.35717 7.3572302,7.3572302 0 0 1 -7.357174,-7.35717 7.3572302,7.3572302 0 0 1 0.0057,-0.13229 z"
         inkscape:transform-center-x="3.5862753" /><path
         id="path447-3"
         style="fill:#005aa0;fill-opacity:1;stroke-width:0.296897"
         d="m 66.1238,112.91582 -6.19356,10.78946 -6.194019,10.78973 12.441443,0.0311 12.440725,0.031 -2.56987,-4.45114 a 7.3572302,7.3572302 0 0 1 -0.113565,0.0679 7.3572302,7.3572302 0 0 1 -10.050082,-2.69292 7.3572302,7.3572302 0 0 1 2.692908,-10.05008 7.3572302,7.3572302 0 0 1 0.117416,-0.0612 z"
         inkscape:transform-center-y="-0.017950184"
         inkscape:transform-center-x="-3.5862753" /><circle
         style="fill:#8cb423;fill-opacity:1;stroke-width:0.264583"
         id="path231-6"
         cx="93.281113"
         cy="-136.66405"
         r="2.5926795"
         transform="rotate(120)" /><circle
         style="fill:#8cb423;fill-opacity:1;stroke-width:0.264583"
         id="path231-5"
         cx="-50.063339"
         cy="-161.61584"
         r="2.5926795"
         transform="scale(-1)" /><circle
         style="fill:#8cb423;fill-opacity:1;stroke-width:0.264583"
         id="path231-9"
         cx="-143.34445"
         cy="-49.951794"
         r="2.5926795"
         transform="rotate(-120)" /><circle
         style="fill:#8cb423;fill-opacity:1;stroke-width:0.264583"
         id="path231-6-5"
         cx="-93.281097"
         cy="86.66407"
         r="2.5926795"
         transform="rotate(-59.999988)" /><circle
         style="fill:#8cb423;fill-opacity:1;stroke-width:0.264583"
         id="path231-5-4"
         cx="143.34445"
         cy="-0.048177384"
         r="2.5926795"
         transform="rotate(59.999988)" /><circle
         style="fill:#8cb423;fill-opacity:1;stroke-width:0.264583"
         id="path231-9-9"
         cx="50.063343"
         cy="111.61584"
         r="2.5926795" /></g><g
       aria-label="PERUN"
       id="text854"
       style="font-size:35.2778px;fill:#8cb423;stroke:#000000;stroke-width:0.264583"><path
         d="M 99.467576,124.10986 H 87.614235 v 25.01197 h 4.797781 v -8.57251 h 7.05556 c 1.058334,0 2.046114,-0.42333 2.822224,-1.16417 l 2.46945,-2.46944 c 0.74083,-0.74084 1.16416,-1.76389 1.16416,-2.82223 v -3.4925 c 0,-1.05833 -0.42333,-2.08139 -1.16416,-2.82222 l -2.46945,-2.46945 c -0.77611,-0.77611 -1.76389,-1.19945 -2.822224,-1.19945 z m -0.670278,11.64168 h -6.385282 v -6.84389 h 6.385282 c 0.211667,0 0.423334,0.10583 0.564445,0.24694 l 1.516947,1.55222 c 0.17639,0.14111 0.24694,1.41112 0.24694,1.62278 v 1.09361 c 0,0.21167 -0.0705,0.42334 -0.24694,0.56445 l -1.516947,1.55222 c -0.141111,0.14111 -0.352778,0.21167 -0.564445,0.21167 z"
         style="font-family:Hermann;-inkscape-font-specification:Hermann;fill:#5a696e;stroke:none"
         id="path1803" /><path
         d="m 114.6017,128.94292 v 5.29167 h 9.13695 v 4.79778 h -9.13695 v 5.29168 h 10.93611 v 4.79778 h -13.40556 c -0.21167,0 -0.42333,-0.0706 -0.56445,-0.21167 l -1.55222,-1.55222 c -0.14111,-0.14112 -0.21167,-0.35278 -0.21167,-0.56445 v -20.32001 c 0,-0.21167 0.0706,-0.38806 0.21167,-0.56445 l 1.55222,-1.55222 c 0.14112,-0.14111 0.35278,-0.21167 0.56445,-0.21167 h 13.40556 v 4.79778 z"
         style="font-family:Hermann;-inkscape-font-specification:Hermann;fill:#5a696e;stroke:none"
         id="path1805" /><path
         d="m 143.88225,140.93738 2.64584,-2.68112 c 0.77611,-0.74083 1.19944,-1.76389 1.19944,-2.82222 v -4.79778 c 0,-1.09361 -0.42333,-2.08139 -1.19944,-2.8575 l -2.46945,-2.46945 c -0.74083,-0.74083 -1.76389,-1.16417 -2.82222,-1.16417 h -11.43001 v 24.97669 h 4.79778 v -7.19668 h 4.30389 l 4.02167,7.19668 h 5.46806 z m -9.27806,-11.99446 h 5.96195 c 0.21166,0 0.42333,0.0706 0.56444,0.24695 l 1.55222,1.51694 c 0.14112,0.17639 0.24695,0.35278 0.24695,0.56445 v 3.4925 c 0,0.21167 -0.10583,0.42333 -0.24695,0.56445 l -1.55222,1.55222 c -0.14111,0.14111 -0.35278,0.24694 -0.56444,0.24694 h -5.96195 z"
         style="font-family:Hermann;-inkscape-font-specification:Hermann;fill:#5a696e;stroke:none"
         id="path1807" /><path
         d="m 165.71913,141.99571 v -17.88585 h 4.83306 v 18.52085 c 0,1.05833 -0.45862,2.04611 -1.23473,2.82222 l -2.46944,2.50473 c -0.70556,0.74083 -1.72862,1.16417 -2.78695,1.16417 h -4.7625 c -1.05834,0 -2.08139,-0.42334 -2.82223,-1.16417 l -2.46944,-2.50473 c -0.74084,-0.77611 -1.16417,-1.76389 -1.16417,-2.82222 v -18.52085 h 4.79778 v 17.88585 c 0,0.21167 0.0706,0.38806 0.21167,0.56445 l 1.55222,1.51694 c 0.14111,0.17639 0.35278,0.24695 0.56445,0.24695 h 3.42194 c 0.21167,0 0.42334,-0.0706 0.56445,-0.24695 l 1.55222,-1.51694 c 0.14111,-0.17639 0.21167,-0.35278 0.21167,-0.56445 z"
         style="font-family:Hermann;-inkscape-font-specification:Hermann;fill:#5a696e;stroke:none"
         id="path1809" /><path
         d="m 189.28458,124.10986 v 15.27529 l -8.4314,-14.85195 c -0.14111,-0.24695 -0.38805,-0.42334 -0.70555,-0.42334 h -4.30389 v 25.01197 h 4.79778 v -15.27529 l 8.43139,14.88723 c 0.14111,0.24694 0.38806,0.38806 0.67028,0.38806 h 4.33917 v -25.01197 z"
         style="font-family:Hermann;-inkscape-font-specification:Hermann;fill:#5a696e;stroke:none"
         id="path1811" /></g></g></svg>
