<?xml version="1.0" encoding="UTF-8" standalone="no"?>
<!-- Created with Inkscape (http://www.inkscape.org/) -->

<svg
   width="106.46812mm"
   height="25.011971mm"
   viewBox="0 0 106.46813 25.011971"
   version="1.1"
   id="svg5"
   xml:space="preserve"
   inkscape:version="1.2.2 (b0a8486541, 2022-12-01)"
   sodipodi:docname="text_logo_darker.svg"
   xmlns:inkscape="http://www.inkscape.org/namespaces/inkscape"
   xmlns:sodipodi="http://sodipodi.sourceforge.net/DTD/sodipodi-0.dtd"
   xmlns="http://www.w3.org/2000/svg"
   xmlns:svg="http://www.w3.org/2000/svg"><sodipodi:namedview
     id="namedview7"
     pagecolor="#505050"
     bordercolor="#eeeeee"
     borderopacity="1"
     inkscape:showpageshadow="0"
     inkscape:pageopacity="0"
     inkscape:pagecheckerboard="0"
     inkscape:deskcolor="#505050"
     inkscape:document-units="mm"
     showgrid="false"
     inkscape:zoom="1.2368489"
     inkscape:cx="132.99927"
     inkscape:cy="197.27551"
     inkscape:window-width="1902"
     inkscape:window-height="928"
     inkscape:window-x="5"
     inkscape:window-y="940"
     inkscape:window-maximized="1"
     inkscape:current-layer="text854" /><defs
     id="defs2" /><g
     inkscape:label="Layer 1"
     inkscape:groupmode="layer"
     id="layer1"
     transform="translate(-21.508291,-109.02316)"><g
       aria-label="PERUN"
       id="text854"
       style="font-size:35.2778px;fill:#8cb423;stroke:#000000;stroke-width:0.264583"
       transform="translate(-66.105944,-15.0867)"><path
         d="M 99.467576,124.10986 H 87.614235 v 25.01197 h 4.797781 v -8.57251 h 7.05556 c 1.058334,0 2.046114,-0.42333 2.822224,-1.16417 l 2.46945,-2.46944 c 0.74083,-0.74084 1.16416,-1.76389 1.16416,-2.82223 v -3.4925 c 0,-1.05833 -0.42333,-2.08139 -1.16416,-2.82222 l -2.46945,-2.46945 c -0.77611,-0.77611 -1.76389,-1.19945 -2.822224,-1.19945 z m -0.670278,11.64168 h -6.385282 v -6.84389 h 6.385282 c 0.211667,0 0.423334,0.10583 0.564445,0.24694 l 1.516947,1.55222 c 0.17639,0.14111 0.24694,1.41112 0.24694,1.62278 v 1.09361 c 0,0.21167 -0.0705,0.42334 -0.24694,0.56445 l -1.516947,1.55222 c -0.141111,0.14111 -0.352778,0.21167 -0.564445,0.21167 z"
         style="font-family:Hermann;-inkscape-font-specification:Hermann;fill:#283032;stroke:none;fill-opacity:1"
         id="path1803" /><path
         d="m 114.6017,128.94292 v 5.29167 h 9.13695 v 4.79778 h -9.13695 v 5.29168 h 10.93611 v 4.79778 h -13.40556 c -0.21167,0 -0.42333,-0.0706 -0.56445,-0.21167 l -1.55222,-1.55222 c -0.14111,-0.14112 -0.21167,-0.35278 -0.21167,-0.56445 v -20.32001 c 0,-0.21167 0.0706,-0.38806 0.21167,-0.56445 l 1.55222,-1.55222 c 0.14112,-0.14111 0.35278,-0.21167 0.56445,-0.21167 h 13.40556 v 4.79778 z"
         style="font-family:Hermann;-inkscape-font-specification:Hermann;fill:#283032;stroke:none;fill-opacity:1"
         id="path1805" /><path
         d="m 143.88225,140.93738 2.64584,-2.68112 c 0.77611,-0.74083 1.19944,-1.76389 1.19944,-2.82222 v -4.79778 c 0,-1.09361 -0.42333,-2.08139 -1.19944,-2.8575 l -2.46945,-2.46945 c -0.74083,-0.74083 -1.76389,-1.16417 -2.82222,-1.16417 h -11.43001 v 24.97669 h 4.79778 v -7.19668 h 4.30389 l 4.02167,7.19668 h 5.46806 z m -9.27806,-11.99446 h 5.96195 c 0.21166,0 0.42333,0.0706 0.56444,0.24695 l 1.55222,1.51694 c 0.14112,0.17639 0.24695,0.35278 0.24695,0.56445 v 3.4925 c 0,0.21167 -0.10583,0.42333 -0.24695,0.56445 l -1.55222,1.55222 c -0.14111,0.14111 -0.35278,0.24694 -0.56444,0.24694 h -5.96195 z"
         style="font-family:Hermann;-inkscape-font-specification:Hermann;fill:#283032;stroke:none;fill-opacity:1"
         id="path1807" /><path
         d="m 165.71913,141.99571 v -17.88585 h 4.83306 v 18.52085 c 0,1.05833 -0.45862,2.04611 -1.23473,2.82222 l -2.46944,2.50473 c -0.70556,0.74083 -1.72862,1.16417 -2.78695,1.16417 h -4.7625 c -1.05834,0 -2.08139,-0.42334 -2.82223,-1.16417 l -2.46944,-2.50473 c -0.74084,-0.77611 -1.16417,-1.76389 -1.16417,-2.82222 v -18.52085 h 4.79778 v 17.88585 c 0,0.21167 0.0706,0.38806 0.21167,0.56445 l 1.55222,1.51694 c 0.14111,0.17639 0.35278,0.24695 0.56445,0.24695 h 3.42194 c 0.21167,0 0.42334,-0.0706 0.56445,-0.24695 l 1.55222,-1.51694 c 0.14111,-0.17639 0.21167,-0.35278 0.21167,-0.56445 z"
         style="font-family:Hermann;-inkscape-font-specification:Hermann;fill:#283032;stroke:none;fill-opacity:1"
         id="path1809" /><path
         d="m 189.28458,124.10986 v 15.27529 l -8.4314,-14.85195 c -0.14111,-0.24695 -0.38805,-0.42334 -0.70555,-0.42334 h -4.30389 v 25.01197 h 4.79778 v -15.27529 l 8.43139,14.88723 c 0.14111,0.24694 0.38806,0.38806 0.67028,0.38806 h 4.33917 v -25.01197 z"
         style="font-family:Hermann;-inkscape-font-specification:Hermann;fill:#283032;stroke:none;fill-opacity:1"
         id="path1811" /></g></g></svg>
